<?xml version="1.0" encoding="utf-8"?>
<svg
	version="1.1"
	xmlns="http://www.w3.org/2000/svg"
	xmlns:xlink="http://www.w3.org/1999/xlink"
	x="0%" y="0%"
	width="100%" height="100%"
	viewBox="0 0 24.0 24.0"
	enable-background="new 0 0 24.0 24.0"
	xml:space="preserve">
	<path
		fill="#CC0000"
		stroke="#FFFFFF"
		fill-opacity="0.992"
		stroke-opacity="1.000"
		fill-rule="nonzero"
		stroke-width="0.768"
		stroke-linejoin="miter"
		stroke-linecap="square"
		d="M2.00,6.00L22.00,6.00L22.00,18.00L2.00,18.00z"/>
	<path
		fill="#2A00FF"
		stroke="#FFFFFF"
		fill-opacity="1.000"
		stroke-opacity="1.000"
		fill-rule="nonzero"
		stroke-width="0.768"
		stroke-linejoin="miter"
		stroke-linecap="square"
		d="M2.00,6.00L10.00,6.00L10.00,12.00L2.00,12.00z"/>
	<path
		fill="#808080"
		stroke="#FBFFFF"
		fill-opacity="0.000"
		stroke-opacity="1.000"
		fill-rule="nonzero"
		stroke-width="0.768"
		stroke-linejoin="miter"
		stroke-linecap="square"
		d="M10.50,8.00L22.00,8.00"/>
	<path
		fill="#808080"
		stroke="#FBFFFF"
		fill-opacity="0.000"
		stroke-opacity="1.000"
		fill-rule="nonzero"
		stroke-width="0.768"
		stroke-linejoin="miter"
		stroke-linecap="square"
		d="M10.50,10.00L22.00,10.00"/>
	<path
		fill="#808080"
		stroke="#FBFFFF"
		fill-opacity="0.000"
		stroke-opacity="1.000"
		fill-rule="nonzero"
		stroke-width="0.768"
		stroke-linejoin="miter"
		stroke-linecap="square"
		d="M10.50,12.00L22.00,12.00"/>
	<path
		fill="#808080"
		stroke="#FBFFFF"
		fill-opacity="0.000"
		stroke-opacity="1.000"
		fill-rule="nonzero"
		stroke-width="0.768"
		stroke-linejoin="miter"
		stroke-linecap="square"
		d="M2.00,14.00L22.00,14.00"/>
	<path
		fill="#808080"
		stroke="#FBFFFF"
		fill-opacity="0.000"
		stroke-opacity="1.000"
		fill-rule="nonzero"
		stroke-width="0.768"
		stroke-linejoin="miter"
		stroke-linecap="square"
		d="M2.00,16.00L22.00,16.00"/>
	<path
		fill="#FFFFFF"
		stroke="#FFFFFF"
		fill-opacity="1.000"
		stroke-opacity="1.000"
		fill-rule="nonzero"
		stroke-width="0.04017684"
		stroke-linejoin="miter"
		stroke-linecap="square"
		d="M8.55,6.89L9.57,6.88L8.66,7.57L8.99,6.43L9.36,7.57L8.43,6.89L9.42,6.89"/>
	<path
		fill="#FFFFFF"
		stroke="#FFFFFF"
		fill-opacity="1.000"
		stroke-opacity="1.000"
		fill-rule="nonzero"
		stroke-width="0.04017684"
		stroke-linejoin="miter"
		stroke-linecap="square"
		d="M8.55,10.89L9.57,10.88L8.66,11.57L8.99,10.43L9.36,11.57L8.43,10.89L9.42,10.89"/>
	<path
		fill="#FFFFFF"
		stroke="#FFFFFF"
		fill-opacity="1.000"
		stroke-opacity="1.000"
		fill-rule="nonzero"
		stroke-width="0.04017684"
		stroke-linejoin="miter"
		stroke-linecap="square"
		d="M8.55,8.89L9.57,8.88L8.66,9.57L8.99,8.43L9.36,9.57L8.43,8.89L9.42,8.89"/>
	<path
		fill="#FFFFFF"
		stroke="#FFFFFF"
		fill-opacity="1.000"
		stroke-opacity="1.000"
		fill-rule="nonzero"
		stroke-width="0.04017684"
		stroke-linejoin="miter"
		stroke-linecap="square"
		d="M7.55,7.89L8.57,7.88L7.66,8.57L7.99,7.43L8.36,8.57L7.43,7.89L8.42,7.89"/>
	<path
		fill="#FFFFFF"
		stroke="#FFFFFF"
		fill-opacity="1.000"
		stroke-opacity="1.000"
		fill-rule="nonzero"
		stroke-width="0.04017684"
		stroke-linejoin="miter"
		stroke-linecap="square"
		d="M7.55,9.89L8.57,9.88L7.66,10.57L7.99,9.43L8.36,10.57L7.43,9.89L8.42,9.89"/>
	<path
		fill="#FFFFFF"
		stroke="#FFFFFF"
		fill-opacity="1.000"
		stroke-opacity="1.000"
		fill-rule="nonzero"
		stroke-width="0.04017684"
		stroke-linejoin="miter"
		stroke-linecap="square"
		d="M6.55,6.89L7.57,6.88L6.66,7.57L6.99,6.43L7.36,7.57L6.43,6.89L7.42,6.89"/>
	<path
		fill="#FFFFFF"
		stroke="#FFFFFF"
		fill-opacity="1.000"
		stroke-opacity="1.000"
		fill-rule="nonzero"
		stroke-width="0.04017684"
		stroke-linejoin="miter"
		stroke-linecap="square"
		d="M6.55,10.89L7.57,10.88L6.66,11.57L6.99,10.43L7.36,11.57L6.43,10.89L7.42,10.89"/>
	<path
		fill="#FFFFFF"
		stroke="#FFFFFF"
		fill-opacity="1.000"
		stroke-opacity="1.000"
		fill-rule="nonzero"
		stroke-width="0.04017684"
		stroke-linejoin="miter"
		stroke-linecap="square"
		d="M6.55,8.89L7.57,8.88L6.66,9.57L6.99,8.43L7.36,9.57L6.43,8.89L7.42,8.89"/>
	<path
		fill="#FFFFFF"
		stroke="#FFFFFF"
		fill-opacity="1.000"
		stroke-opacity="1.000"
		fill-rule="nonzero"
		stroke-width="0.04017684"
		stroke-linejoin="miter"
		stroke-linecap="square"
		d="M5.55,7.89L6.57,7.88L5.66,8.57L5.99,7.43L6.36,8.57L5.43,7.89L6.42,7.89"/>
	<path
		fill="#FFFFFF"
		stroke="#FFFFFF"
		fill-opacity="1.000"
		stroke-opacity="1.000"
		fill-rule="nonzero"
		stroke-width="0.04017684"
		stroke-linejoin="miter"
		stroke-linecap="square"
		d="M5.55,9.89L6.57,9.88L5.66,10.57L5.99,9.43L6.36,10.57L5.43,9.89L6.42,9.89"/>
	<path
		fill="#FFFFFF"
		stroke="#FFFFFF"
		fill-opacity="1.000"
		stroke-opacity="1.000"
		fill-rule="nonzero"
		stroke-width="0.04017684"
		stroke-linejoin="miter"
		stroke-linecap="square"
		d="M4.55,6.89L5.57,6.88L4.66,7.57L4.99,6.43L5.36,7.57L4.43,6.89L5.42,6.89"/>
	<path
		fill="#FFFFFF"
		stroke="#FFFFFF"
		fill-opacity="1.000"
		stroke-opacity="1.000"
		fill-rule="nonzero"
		stroke-width="0.04017684"
		stroke-linejoin="miter"
		stroke-linecap="square"
		d="M4.55,10.89L5.57,10.88L4.66,11.57L4.99,10.43L5.36,11.57L4.43,10.89L5.42,10.89"/>
	<path
		fill="#FFFFFF"
		stroke="#FFFFFF"
		fill-opacity="1.000"
		stroke-opacity="1.000"
		fill-rule="nonzero"
		stroke-width="0.04017684"
		stroke-linejoin="miter"
		stroke-linecap="square"
		d="M4.55,8.89L5.57,8.88L4.66,9.57L4.99,8.43L5.36,9.57L4.43,8.89L5.42,8.89"/>
	<path
		fill="#FFFFFF"
		stroke="#FFFFFF"
		fill-opacity="1.000"
		stroke-opacity="1.000"
		fill-rule="nonzero"
		stroke-width="0.04017684"
		stroke-linejoin="miter"
		stroke-linecap="square"
		d="M3.55,7.89L4.57,7.88L3.66,8.57L3.99,7.43L4.36,8.57L3.43,7.89L4.42,7.89"/>
	<path
		fill="#FFFFFF"
		stroke="#FFFFFF"
		fill-opacity="1.000"
		stroke-opacity="1.000"
		fill-rule="nonzero"
		stroke-width="0.04017684"
		stroke-linejoin="miter"
		stroke-linecap="square"
		d="M3.55,9.89L4.57,9.88L3.66,10.57L3.99,9.43L4.36,10.57L3.43,9.89L4.42,9.89"/>
	<path
		fill="#FFFFFF"
		stroke="#FFFFFF"
		fill-opacity="1.000"
		stroke-opacity="1.000"
		fill-rule="nonzero"
		stroke-width="0.04017683"
		stroke-linejoin="miter"
		stroke-linecap="square"
		d="M2.55,6.89L3.57,6.88L2.66,7.57L2.99,6.43L3.36,7.57L2.43,6.89L3.42,6.89"/>
	<path
		fill="#FFFFFF"
		stroke="#FFFFFF"
		fill-opacity="1.000"
		stroke-opacity="1.000"
		fill-rule="nonzero"
		stroke-width="0.04017683"
		stroke-linejoin="miter"
		stroke-linecap="square"
		d="M2.55,10.89L3.57,10.88L2.66,11.57L2.99,10.43L3.36,11.57L2.43,10.89L3.42,10.89"/>
	<path
		fill="#FFFFFF"
		stroke="#FFFFFF"
		fill-opacity="1.000"
		stroke-opacity="1.000"
		fill-rule="nonzero"
		stroke-width="0.04017683"
		stroke-linejoin="miter"
		stroke-linecap="square"
		d="M2.55,8.89L3.57,8.88L2.66,9.57L2.99,8.43L3.36,9.57L2.43,8.89L3.42,8.89"/>
</svg>